<svg width="30" height="30" viewBox="0 0 84 83" fill="none" xmlns="http://www.w3.org/2000/svg">
<path d="M40.25 47.5L21 37L1.75 47.5L21 58L40.25 47.5Z" fill="#282828"/>
<path d="M20 82V59.75L1 49.25V71.5L20 82Z" fill="#282828"/>
<path d="M22 82V59.75L41 49.1095V71.5L22 82Z" fill="#282828"/>
<path d="M21 37L40.25 47.5L21 58L1.75 47.5L21 37Z" fill="#282828"/>
<path d="M82.25 47.5L63 37L43.75 47.5L63 58L82.25 47.5Z" fill="#282828"/>
<path d="M62 82V59.75L43 49.25V71.5L62 82Z" fill="#282828"/>
<path d="M64 82V59.75L83 49.1095V71.5L64 82Z" fill="#282828"/>
<path d="M63 37L82.25 47.5L63 58L43.75 47.5L63 37Z" fill="#282828"/>
<path d="M61.25 11.5L42 1L22.75 11.5L42 22L61.25 11.5Z" fill="#282828"/>
<path d="M41 46V23.75L22 13.25V35.5L41 46Z" fill="#282828"/>
<path d="M43 46V23.75L62 13.1095V35.5L43 46Z" fill="#282828"/>
<path d="M42 1L61.25 11.5L42 22L22.75 11.5L42 1Z" fill="#282828"/>
<path d="M40.25 47.5L21 37L1.75 47.5L21 58L40.25 47.5Z" stroke="#282828"/>
<path d="M20 82V59.75L1 49.25V71.5L20 82Z" stroke="#282828"/>
<path d="M22 82V59.75L41 49.1095V71.5L22 82Z" stroke="#282828"/>
<path d="M21 37L40.25 47.5L21 58L1.75 47.5L21 37Z" stroke="#282828"/>
<path d="M82.25 47.5L63 37L43.75 47.5L63 58L82.25 47.5Z" stroke="#282828"/>
<path d="M62 82V59.75L43 49.25V71.5L62 82Z" stroke="#282828"/>
<path d="M64 82V59.75L83 49.1095V71.5L64 82Z" stroke="#282828"/>
<path d="M63 37L82.25 47.5L63 58L43.75 47.5L63 37Z" stroke="#282828"/>
<path d="M61.25 11.5L42 1L22.75 11.5L42 22L61.25 11.5Z" stroke="#282828"/>
<path d="M41 46V23.75L22 13.25V35.5L41 46Z" stroke="#282828"/>
<path d="M43 46V23.75L62 13.1095V35.5L43 46Z" stroke="#282828"/>
<path d="M42 1L61.25 11.5L42 22L22.75 11.5L42 1Z" stroke="#282828"/>
</svg>
