<svg width="36" height="35" viewBox="0 0 36 35" fill="none" xmlns="http://www.w3.org/2000/svg">
<path d="M15.4815 15.2241V14.2241C14.9292 14.2241 14.4815 14.6719 14.4815 15.2241H15.4815ZM15.4815 34H14.4815C14.4815 34.5523 14.9292 35 15.4815 35V34ZM35 34V35C35.5523 35 36 34.5523 36 34H35ZM35 15.2241H36C36 14.6719 35.5523 14.2241 35 14.2241V15.2241ZM1 1V0C0.447715 0 0 0.447715 0 1L1 1ZM1 19.7759H0C0 20.3281 0.447715 20.7759 1 20.7759L1 19.7759ZM20.5185 1H21.5185C21.5185 0.447715 21.0708 0 20.5185 0V1ZM25.5556 19.2069L26.462 18.7845C26.3014 18.4398 25.9591 18.2161 25.5789 18.2072C25.1987 18.1983 24.8464 18.4058 24.6699 18.7426L25.5556 19.2069ZM29.0019 26.6034L29.9084 26.1811L29.0019 26.6034ZM15.4815 35H35V33H15.4815V35ZM36 34V15.2241H34V34H36ZM0 1V19.7759H2V1H0ZM20.5185 0H1V2H20.5185V0ZM14.4815 15.2241V19.7759H16.4815V15.2241H14.4815ZM14.4815 19.7759V34H16.4815V19.7759H14.4815ZM1 20.7759H15.4815V18.7759H1V20.7759ZM35 14.2241H20.5185V16.2241H35V14.2241ZM20.5185 14.2241H15.4815V16.2241H20.5185V14.2241ZM19.5185 1V15.2241H21.5185V1H19.5185ZM3.82162 18C3.71374 19.5597 3.69146 22.3806 5.13829 24.8353C6.64212 27.3868 9.58537 29.3103 14.8934 29.3103V27.3103C10.1272 27.3103 7.92844 25.6304 6.86128 23.8198C5.73712 21.9125 5.71485 19.6127 5.81685 18.138L3.82162 18ZM32.2199 17C32.3278 15.4403 32.35 12.6194 30.9032 10.1646C29.3994 7.61318 26.4561 5.68965 21.1481 5.68965V7.68965C25.9143 7.68965 28.1131 9.36958 29.1802 11.1802C30.3044 13.0875 30.3266 15.3873 30.2246 16.862L32.2199 17ZM3.51852 7.92672H11.9807V5.92672H3.51852V7.92672ZM11.9807 7.92672H15.003V5.92672H11.9807V7.92672ZM15.003 7.92672H18.6296V5.92672H15.003V7.92672ZM12.9807 6.92672V3.27586H10.9807V6.92672H12.9807ZM14.0231 7.12636C14.1772 7.88271 14.144 8.80695 13.6901 9.7689C13.2366 10.73 12.3288 11.8011 10.6136 12.7903L11.6127 14.5228C13.6106 13.3706 14.8397 12.0194 15.4989 10.6223C16.1577 9.22604 16.2128 7.85606 15.9828 6.72709L14.0231 7.12636ZM10.6136 12.7903C9.295 13.5507 7.50612 14.258 5.10426 14.8193L5.55945 16.7669C8.10311 16.1723 10.0856 15.4035 11.6127 14.5228L10.6136 12.7903ZM6.35386 10.6674C7.15475 11.704 8.73727 13.3738 10.5908 14.5093L11.6355 12.8038C10.0468 11.8306 8.63682 10.351 7.93651 9.44464L6.35386 10.6674ZM10.5908 14.5093C11.7189 15.2003 13.0388 15.75 14.3985 15.75V13.75C13.5584 13.75 12.6091 13.4002 11.6355 12.8038L10.5908 14.5093ZM24.6699 18.7426L20.7927 26.1392L22.5641 27.0677L26.4412 19.6712L24.6699 18.7426ZM20.7927 26.1392L19.0032 29.553L20.7746 30.4815L22.5641 27.0677L20.7927 26.1392ZM24.6491 19.6292L28.0955 27.0258L29.9084 26.1811L26.462 18.7845L24.6491 19.6292ZM28.0955 27.0258L29.6862 30.4396L31.499 29.5949L29.9084 26.1811L28.0955 27.0258ZM21.6784 27.6034H29.0019V25.6034H21.6784V27.6034Z" fill="#859EA4"/>
</svg>
