<svg width="36" height="36" viewBox="0 0 36 36" fill="none" xmlns="http://www.w3.org/2000/svg">
<path d="M9.24242 11.5806L8.64556 10.7783C8.39191 10.967 8.24242 11.2645 8.24242 11.5806H9.24242ZM22.1212 2L22.7181 1.19766C22.3638 0.934113 21.8786 0.934113 21.5243 1.19766L22.1212 2ZM35 11.5806H36C36 11.2645 35.8505 10.967 35.5969 10.7783L35 11.5806ZM35 23.2903L35.6727 24.0302C35.8812 23.8407 36 23.572 36 23.2903H35ZM22.1212 35L21.4485 35.7399C21.8299 36.0867 22.4125 36.0867 22.7939 35.7399L22.1212 35ZM9.24242 23.2903H8.24242C8.24242 23.572 8.36126 23.8407 8.5697 24.0302L9.24242 23.2903ZM22.6364 12.2812L21.9437 13.0025C22.3307 13.3742 22.9421 13.3742 23.3291 13.0025L22.6364 12.2812ZM22.7181 20.359L9.83929 10.7783L8.64556 12.383L21.5243 21.9636L22.7181 20.359ZM9.83929 12.383L22.7181 2.80234L21.5243 1.19766L8.64556 10.7783L9.83929 12.383ZM21.5243 2.80234L34.4031 12.383L35.5969 10.7783L22.7181 1.19766L21.5243 2.80234ZM34.4031 10.7783L21.5243 20.359L22.7181 21.9636L35.5969 12.383L34.4031 10.7783ZM34 11.5806V23.2903H36V11.5806H34ZM34.3273 22.5504L21.4485 34.2601L22.7939 35.7399L35.6727 24.0302L34.3273 22.5504ZM22.7939 34.2601L9.91515 22.5504L8.5697 24.0302L21.4485 35.7399L22.7939 34.2601ZM10.2424 23.2903V11.5806H8.24242V23.2903H10.2424ZM21.1212 21.1613V35H23.1212V21.1613H21.1212ZM23.3291 13.0025L26.42 10.0337L25.0346 8.59128L21.9437 11.56L23.3291 13.0025ZM23.6364 12.2812C23.6364 10.2136 23.561 7.10955 21.8644 4.53219C20.1084 1.86466 16.7971 0 10.8909 0V2C16.3593 2 18.9207 3.69784 20.1938 5.63187C21.5263 7.65607 21.6364 10.1927 21.6364 12.2812H23.6364ZM10.8909 0C8.13338 0 6.02095 1.04806 4.44951 2.69365C2.90557 4.31045 1.91842 6.46448 1.27651 8.66089C-0.00527072 13.0468 -5.00679e-06 17.9326 0 20L2 20C1.99999 17.9112 2.00526 13.297 3.19621 9.22192C3.79067 7.18786 4.65807 5.37119 5.89594 4.0749C7.10632 2.8074 8.70299 2 10.8909 2V0ZM18.8527 10.0337L21.9437 13.0025L23.3291 11.56L20.2382 8.59128L18.8527 10.0337Z" fill="#859EA4"/>
</svg>
